<?xml version="1.0" encoding="UTF-8" standalone="no"?>
<svg
   xmlns:dc="http://purl.org/dc/elements/1.1/"
   xmlns:cc="http://creativecommons.org/ns#"
   xmlns:rdf="http://www.w3.org/1999/02/22-rdf-syntax-ns#"
   xmlns:svg="http://www.w3.org/2000/svg"
   xmlns="http://www.w3.org/2000/svg"
   xmlns:sodipodi="http://sodipodi.sourceforge.net/DTD/sodipodi-0.dtd"
   xmlns:inkscape="http://www.inkscape.org/namespaces/inkscape"
   version="1.1"
   id="body"
   width="3.0094118in"
   height="1.7594118in"
   viewBox="0 0 0.37617648 0.21992648"
   preserveAspectRatio="none"
   inkscape:version="0.91 r13725"
   sodipodi:docname="reactive_program_paradigm.svg">
  <metadata
     id="metadata46">
    <rdf:RDF>
      <cc:Work
         rdf:about="">
        <dc:format>image/svg+xml</dc:format>
        <dc:type
           rdf:resource="http://purl.org/dc/dcmitype/StillImage" />
      </cc:Work>
    </rdf:RDF>
  </metadata>
  <defs
     id="defs44" />
  <sodipodi:namedview
     pagecolor="#ffffff"
     bordercolor="#666666"
     borderopacity="1"
     objecttolerance="10"
     gridtolerance="10"
     guidetolerance="10"
     inkscape:pageopacity="0"
     inkscape:pageshadow="2"
     inkscape:window-width="640"
     inkscape:window-height="480"
     id="namedview42"
     showgrid="false"
     inkscape:zoom="0.32777778"
     inkscape:cx="135.42353"
     inkscape:cy="79.173531"
     inkscape:window-x="0"
     inkscape:window-y="34"
     inkscape:window-maximized="0"
     inkscape:current-layer="body" />
  <title
     id="title3">SVG drawing</title>
  <desc
     id="desc5">This was produced by version 4.4 of GNU libplot, a free library for exporting 2-D vector graphics.</desc>
  <g
     id="content"
     transform="matrix(0.125,0,0,-0.125,0.37558824,0.10996324)"
     xml:space="preserve"
     stroke-miterlimit="10.433"
     font-style="normal"
     font-variant="normal"
     font-weight="normal"
     font-stretch="normal"
     font-size-adjust="none"
     letter-spacing="normal"
     word-spacing="normal"
     style="font-style:normal;font-variant:normal;font-weight:normal;font-stretch:normal;letter-spacing:normal;word-spacing:normal;text-anchor:start;fill:none;fill-opacity:1;fill-rule:evenodd;stroke:#000000;stroke-linecap:butt;stroke-linejoin:miter;stroke-miterlimit:10.43299961;stroke-dasharray:none;stroke-dashoffset:0;stroke-opacity:1"><text
       transform="matrix(0.0069444,0,0,-0.0069444,-0.77014,0.65931)"
       font-size="20px"
       id="text8"
       style="font-size:20px;font-family:Helvetica, sans-serif;fill:#000000;stroke:none">Reactive</text>
<text
       transform="matrix(0.0069444,0,0,-0.0069444,-0.76625,0.49264)"
       font-size="20px"
       id="text10"
       style="font-size:20px;font-family:Helvetica, sans-serif;fill:#000000;stroke:none">Program</text>
<path
       d="m -0.5,0.125 a 0.25,0.25 0 0 1 -0.25,-0.25"
       id="path12"
       inkscape:connector-curvature="0"
       style="stroke-width:0.0094118;stroke-dasharray:0.05, 0.05" /><polygon
       points="-0.725,-0.025 -0.75,-0.125 -0.775,-0.025 "
       id="polygon14"
       style="fill:#000000;stroke-width:0.0094118" /><path
       d="m -0.75,-0.125 3e-4,-0.01227 9e-4,-0.01223 0.00151,-0.01218 0.00209,-0.01209 0.00269,-0.01198 0.00327,-0.01182 0.00385,-0.01165 0.00442,-0.01145 0.00497,-0.01122 0.00552,-0.01096 0.00605,-0.01068 0.00656,-0.01036 0.00707,-0.01003 0.00755,-0.00968 0.00801,-0.00929 0.00846,-0.00889 0.00889,-0.00846 0.00929,-0.00801 0.00968,-0.00755 0.01003,-0.00707 0.01036,-0.00656 0.01068,-0.00605 0.01096,-0.00552 0.01122,-0.00497 0.01145,-0.00442 0.01165,-0.00385 0.01182,-0.00327 0.01198,-0.00269 0.01209,-0.00209 0.01218,-0.00151 0.01223,-9e-4 0.01227,-3e-4 c 0.13807,0 0.25,0.11193 0.25,0.25"
       id="path16"
       inkscape:connector-curvature="0"
       style="stroke-width:0.0094118;stroke-dasharray:0.05, 0.05" /><polygon
       points="-0.275,-0.225 -0.25,-0.125 -0.225,-0.225 "
       id="polygon18"
       style="fill:#000000;stroke-width:0.0094118" /><path
       d="M -0.25,-0.125 A 0.25,0.25 0 0 1 -0.5,0.125"
       id="path20"
       inkscape:connector-curvature="0"
       style="stroke-width:0.0094118;stroke-dasharray:0.05, 0.05" /><text
       transform="matrix(0.0069444,0,0,-0.0069444,-0.84347,-0.67403)"
       font-size="20px"
       id="text22"
       style="font-size:20px;font-family:Helvetica, sans-serif;fill:#000000;stroke:none">Processing</text>
<rect
       x="-1"
       y="-0.875"
       width="1"
       height="1.75"
       id="rect24"
       style="stroke-width:0.0094118" /><rect
       x="-3"
       y="-0.875"
       width="1"
       height="1.75"
       id="rect26"
       style="stroke-width:0.0094118" /><text
       transform="matrix(0.0069444,0,0,-0.0069444,-2.8898,-0.049028)"
       font-size="20px"
       id="text28"
       style="font-size:20px;font-family:Helvetica, sans-serif;fill:#000000;stroke:none">Environment</text>
<line
       x1="-2"
       y1="0.4375"
       x2="-1"
       y2="0.4375"
       id="line30"
       style="stroke-width:0.0094118" /><polygon
       points="-1.1,0.4625 -1,0.4375 -1.1,0.4125 "
       id="polygon32"
       style="fill:#000000;stroke-width:0.0094118" /><text
       transform="matrix(0.0069444,0,0,-0.0069444,-1.6544,0.47181)"
       font-size="20px"
       id="text34"
       style="font-size:20px;font-family:Helvetica, sans-serif;fill:#000000;stroke:none">Input</text>
<line
       x1="-1"
       y1="-0.4375"
       x2="-2"
       y2="-0.4375"
       id="line36"
       style="stroke-width:0.0094118" /><polygon
       points="-1.9,-0.4625 -2,-0.4375 -1.9,-0.4125 "
       id="polygon38"
       style="fill:#000000;stroke-width:0.0094118" /><text
       transform="matrix(0.0069444,0,0,-0.0069444,-1.7085,-0.56986)"
       font-size="20px"
       id="text40"
       style="font-size:20px;font-family:Helvetica, sans-serif;fill:#000000;stroke:none">Output</text>
</g></svg>
